HIERARCHY
ROOT Hips
{
	OFFSET 0.000000 71.206352 2.654994
	CHANNELS 6 Xposition Yposition Zposition Xrotation Yrotation Zrotation
	JOINT Pelvis
	{
		OFFSET 0.000000 0.000000 0.000000
		CHANNELS 3 Xrotation Yrotation Zrotation
		JOINT LeftUpLeg
		{
			OFFSET 6.797117 -2.508530 -1.318654
			CHANNELS 3 Xrotation Yrotation Zrotation
			JOINT LeftLeg
			{
				OFFSET 2.604768 -29.125713 0.690240
				CHANNELS 3 Xrotation Yrotation Zrotation
				JOINT LeftFoot
				{
					OFFSET 2.495626 -29.462662 -0.266779
					CHANNELS 3 Xrotation Yrotation Zrotation
					JOINT LeftToeBase
					{
						OFFSET 3.145477 -8.630991 16.059889
						CHANNELS 3 Xrotation Yrotation Zrotation
						End Site
						{
							OFFSET 0.000000 18.501570 0.000000
						}
					}
				}
			}
			JOINT Left_ShortSleeve
			{
				OFFSET 1.173896 -10.418373 1.153777
				CHANNELS 3 Xrotation Yrotation Zrotation
				End Site
				{
					OFFSET 0.000000 19.898849 0.000000
				}
			}
		}
		JOINT RightUpLeg
		{
			OFFSET -6.797117 -2.508530 -1.318654
			CHANNELS 3 Xrotation Yrotation Zrotation
			JOINT RightLeg
			{
				OFFSET -2.618195 -29.124561 0.688025
				CHANNELS 3 Xrotation Yrotation Zrotation
				JOINT RightFoot
				{
					OFFSET -2.482200 -29.463818 -0.264565
					CHANNELS 3 Xrotation Yrotation Zrotation
					JOINT RightToeBase
					{
						OFFSET -3.115344 -8.682778 16.113401
						CHANNELS 3 Xrotation Yrotation Zrotation
						End Site
						{
							OFFSET 0.000000 18.567112 0.000000
						}
					}
				}
			}
			JOINT Right_ShortSleeve
			{
				OFFSET -1.173896 -10.418373 1.153777
				CHANNELS 3 Xrotation Yrotation Zrotation
				End Site
				{
					OFFSET 0.000000 19.898849 0.000000
				}
			}
		}
	}
	JOINT Spine
	{
		OFFSET 0.000000 13.368111 0.470529
		CHANNELS 3 Xrotation Yrotation Zrotation
		JOINT Spine1
		{
			OFFSET 0.146996 13.837402 0.538789
			CHANNELS 3 Xrotation Yrotation Zrotation
			JOINT Spine2
			{
				OFFSET 0.167995 16.242874 -1.435485
				CHANNELS 3 Xrotation Yrotation Zrotation
				JOINT Neck
				{
					OFFSET 0.217193 18.631516 -1.679142
					CHANNELS 3 Xrotation Yrotation Zrotation
					JOINT Head
					{
						OFFSET 0.000000 6.599380 1.385859
						CHANNELS 3 Xrotation Yrotation Zrotation
						JOINT Hat
						{
							OFFSET -0.532184 27.220581 -10.096070
							CHANNELS 3 Xrotation Yrotation Zrotation
							End Site
							{
								OFFSET 0.000000 22.029861 0.000000
							}
						}
						JOINT HairD
						{
							OFFSET -10.777430 17.437408 -1.325938
							CHANNELS 3 Xrotation Yrotation Zrotation
							JOINT HairD1
							{
								OFFSET -3.290256 -11.051163 1.062188
								CHANNELS 3 Xrotation Yrotation Zrotation
								End Site
								{
									OFFSET 0.000000 11.579391 0.000000
								}
							}
						}
						JOINT HairB
						{
							OFFSET -10.777430 17.437408 1.467893
							CHANNELS 3 Xrotation Yrotation Zrotation
							JOINT HairB1
							{
								OFFSET -1.561211 -12.956329 3.590162
								CHANNELS 3 Xrotation Yrotation Zrotation
								End Site
								{
									OFFSET 0.000000 13.534882 0.000000
								}
							}
						}
						JOINT HairA
						{
							OFFSET 9.713062 17.437408 1.467893
							CHANNELS 3 Xrotation Yrotation Zrotation
							JOINT HairA1
							{
								OFFSET 1.561211 -12.956329 3.590162
								CHANNELS 3 Xrotation Yrotation Zrotation
								End Site
								{
									OFFSET 0.000000 13.534882 0.000000
								}
							}
						}
						JOINT HairC
						{
							OFFSET 9.713062 17.437408 -1.325938
							CHANNELS 3 Xrotation Yrotation Zrotation
							JOINT HairC1
							{
								OFFSET 3.290255 -11.051163 1.062188
								CHANNELS 3 Xrotation Yrotation Zrotation
								End Site
								{
									OFFSET 0.000000 11.579391 0.000000
								}
							}
						}
					}
				}
				JOINT LeftShoulder
				{
					OFFSET 5.101767 15.108002 -2.763695
					CHANNELS 3 Xrotation Yrotation Zrotation
					JOINT LeftArm
					{
						OFFSET 9.825546 2.506256 -1.597438
						CHANNELS 3 Xrotation Yrotation Zrotation
						JOINT LeftForeArm
						{
							OFFSET 21.924620 0.000000 -1.351923
							CHANNELS 3 Xrotation Yrotation Zrotation
							JOINT LeftHand
							{
								OFFSET 33.867149 -0.000336 -0.895185
								CHANNELS 3 Xrotation Yrotation Zrotation
								JOINT LeftHandThumb1
								{
									OFFSET 6.800735 -1.610214 3.624442
									CHANNELS 3 Xrotation Yrotation Zrotation
									JOINT LeftHandThumb2
									{
										OFFSET 2.133118 -1.047562 2.197256
										CHANNELS 3 Xrotation Yrotation Zrotation
										JOINT LeftHandThumb3
										{
											OFFSET 2.939781 -1.955193 1.239051
											CHANNELS 3 Xrotation Yrotation Zrotation
											End Site
											{
												OFFSET 0.000000 3.741707 0.000000
											}
										}
									}
								}
								JOINT LeftHandIndex1
								{
									OFFSET 14.184837 0.837936 3.778969
									CHANNELS 3 Xrotation Yrotation Zrotation
									JOINT LeftHandIndex2
									{
										OFFSET 3.454674 -0.747025 -0.349037
										CHANNELS 3 Xrotation Yrotation Zrotation
										JOINT LeftHandIndex3
										{
											OFFSET 2.708313 -1.000595 -0.200658
											CHANNELS 3 Xrotation Yrotation Zrotation
											End Site
											{
												OFFSET 0.000000 2.894211 0.000000
											}
										}
									}
								}
								JOINT LeftHandMiddle1
								{
									OFFSET 13.765343 0.551865 -0.058510
									CHANNELS 3 Xrotation Yrotation Zrotation
									JOINT LeftHandMiddle2
									{
										OFFSET 3.329315 -0.830414 -0.218270
										CHANNELS 3 Xrotation Yrotation Zrotation
										JOINT LeftHandMiddle3
										{
											OFFSET 3.521812 -1.082275 -0.230450
											CHANNELS 3 Xrotation Yrotation Zrotation
											End Site
											{
												OFFSET 0.000000 3.691559 0.000000
											}
										}
									}
								}
								JOINT LeftHandRing1
								{
									OFFSET 13.969360 -0.122360 -3.062001
									CHANNELS 3 Xrotation Yrotation Zrotation
									JOINT LeftHandRing2
									{
										OFFSET 3.063065 -0.760193 -0.203345
										CHANNELS 3 Xrotation Yrotation Zrotation
										JOINT LeftHandRing3
										{
											OFFSET 3.200409 -0.861923 -0.256632
											CHANNELS 3 Xrotation Yrotation Zrotation
											End Site
											{
												OFFSET 0.000000 3.324356 0.000000
											}
										}
									}
								}
								JOINT LeftHandPinky1
								{
									OFFSET 13.134644 -0.420990 -5.726565
									CHANNELS 3 Xrotation Yrotation Zrotation
									JOINT LeftHandPinky2
									{
										OFFSET 2.705887 -0.872284 -0.187246
										CHANNELS 3 Xrotation Yrotation Zrotation
										JOINT LeftHandPinky3
										{
											OFFSET 2.653091 -0.882462 -0.224701
											CHANNELS 3 Xrotation Yrotation Zrotation
											End Site
											{
												OFFSET 0.000000 2.805023 0.000000
											}
										}
									}
								}
							}
							JOINT Left_Sleeve
							{
								OFFSET 6.611050 -0.646652 0.631114
								CHANNELS 3 Xrotation Yrotation Zrotation
								End Site
								{
									OFFSET 0.000000 20.275742 0.000000
								}
							}
						}
					}
				}
				JOINT RightShoulder
				{
					OFFSET -5.731749 15.108002 -2.763695
					CHANNELS 3 Xrotation Yrotation Zrotation
					JOINT RightArm
					{
						OFFSET -9.825546 2.506256 -1.597438
						CHANNELS 3 Xrotation Yrotation Zrotation
						JOINT RightForeArm
						{
							OFFSET -21.924620 0.000000 -1.351923
							CHANNELS 3 Xrotation Yrotation Zrotation
							JOINT RightHand
							{
								OFFSET -33.867149 -0.000336 -0.895185
								CHANNELS 3 Xrotation Yrotation Zrotation
								JOINT RightHandThumb1
								{
									OFFSET -6.800735 -1.610214 3.624442
									CHANNELS 3 Xrotation Yrotation Zrotation
									JOINT RightHandThumb2
									{
										OFFSET -2.133118 -1.047562 2.197256
										CHANNELS 3 Xrotation Yrotation Zrotation
										JOINT RightHandThumb3
										{
											OFFSET -2.939781 -1.955193 1.239051
											CHANNELS 3 Xrotation Yrotation Zrotation
											End Site
											{
												OFFSET 0.000000 3.741707 0.000000
											}
										}
									}
								}
								JOINT RightHandIndex1
								{
									OFFSET -14.184837 0.837936 3.778969
									CHANNELS 3 Xrotation Yrotation Zrotation
									JOINT RightHandIndex2
									{
										OFFSET -3.454674 -0.747025 -0.349037
										CHANNELS 3 Xrotation Yrotation Zrotation
										JOINT RightHandIndex3
										{
											OFFSET -2.708313 -1.000595 -0.200658
											CHANNELS 3 Xrotation Yrotation Zrotation
											End Site
											{
												OFFSET 0.000000 2.894211 0.000000
											}
										}
									}
								}
								JOINT RightHandMiddle1
								{
									OFFSET -13.765343 0.551865 -0.058511
									CHANNELS 3 Xrotation Yrotation Zrotation
									JOINT RightHandMiddle2
									{
										OFFSET -3.329315 -0.830414 -0.218269
										CHANNELS 3 Xrotation Yrotation Zrotation
										JOINT RightHandMiddle3
										{
											OFFSET -3.521812 -1.082275 -0.230450
											CHANNELS 3 Xrotation Yrotation Zrotation
											End Site
											{
												OFFSET 0.000000 3.691559 0.000000
											}
										}
									}
								}
								JOINT RightHandRing1
								{
									OFFSET -13.969353 -0.122360 -3.062001
									CHANNELS 3 Xrotation Yrotation Zrotation
									JOINT RightHandRing2
									{
										OFFSET -3.063072 -0.760193 -0.203345
										CHANNELS 3 Xrotation Yrotation Zrotation
										JOINT RightHandRing3
										{
											OFFSET -3.200409 -0.861923 -0.256632
											CHANNELS 3 Xrotation Yrotation Zrotation
											End Site
											{
												OFFSET 0.000000 3.324356 0.000000
											}
										}
									}
								}
								JOINT RightHandPinky1
								{
									OFFSET -13.134644 -0.420990 -5.726565
									CHANNELS 3 Xrotation Yrotation Zrotation
									JOINT RightHandPinky2
									{
										OFFSET -2.705887 -0.872284 -0.187247
										CHANNELS 3 Xrotation Yrotation Zrotation
										JOINT RightHandPinky3
										{
											OFFSET -2.653091 -0.882462 -0.224700
											CHANNELS 3 Xrotation Yrotation Zrotation
											End Site
											{
												OFFSET 0.000000 2.805023 0.000000
											}
										}
									}
								}
							}
							JOINT Right_Sleeve
							{
								OFFSET -6.611050 -0.646652 0.631114
								CHANNELS 3 Xrotation Yrotation Zrotation
								End Site
								{
									OFFSET 0.000000 20.275742 0.000000
								}
							}
						}
					}
				}
				JOINT Bind_Right_JacketString
				{
					OFFSET -3.534774 11.969604 7.200667
					CHANNELS 3 Xrotation Yrotation Zrotation
					JOINT Bind_Right_JacketString1
					{
						OFFSET -0.319887 -6.102631 2.794061
						CHANNELS 3 Xrotation Yrotation Zrotation
						End Site
						{
							OFFSET 0.000000 6.719467 0.000000
						}
					}
				}
				JOINT Bind_Left_JacketString
				{
					OFFSET 2.904793 11.969604 7.200667
					CHANNELS 3 Xrotation Yrotation Zrotation
					JOINT Bind_Left_JacketString1
					{
						OFFSET 0.364847 -5.904457 3.186764
						CHANNELS 3 Xrotation Yrotation Zrotation
						End Site
						{
							OFFSET 0.000000 6.719460 0.000000
						}
					}
				}
				JOINT HairE
				{
					OFFSET 5.915198 17.612656 -11.592244
					CHANNELS 3 Xrotation Yrotation Zrotation
					JOINT HairE1
					{
						OFFSET 0.289203 -7.171906 -1.284488
						CHANNELS 3 Xrotation Yrotation Zrotation
						End Site
						{
							OFFSET 0.000000 7.291763 0.000000
						}
					}
				}
				JOINT HairF
				{
					OFFSET -0.864797 17.612656 -11.592244
					CHANNELS 3 Xrotation Yrotation Zrotation
					JOINT HairF1
					{
						OFFSET -0.000000 -14.087097 -2.127508
						CHANNELS 3 Xrotation Yrotation Zrotation
						End Site
						{
							OFFSET 0.000000 14.246841 0.000000
						}
					}
				}
				JOINT HairG
				{
					OFFSET -8.087694 17.612656 -11.592244
					CHANNELS 3 Xrotation Yrotation Zrotation
					JOINT HairG1
					{
						OFFSET -0.293551 -6.081375 -0.910136
						CHANNELS 3 Xrotation Yrotation Zrotation
						End Site
						{
							OFFSET 0.000000 6.156113 0.000000
						}
					}
				}
			}
		}
	}
	JOINT Pouch
	{
		OFFSET 0.000000 4.394547 10.847303
		CHANNELS 3 Xrotation Yrotation Zrotation
		End Site
		{
			OFFSET 0.000000 21.880577 0.000000
		}
	}
	JOINT Bag
	{
		OFFSET -13.229022 4.813034 -0.593262
		CHANNELS 3 Xrotation Yrotation Zrotation
		End Site
		{
			OFFSET 0.000000 21.880577 0.000000
		}
	}
	JOINT OccupyGuyFacialAnim_Joint
	{
		OFFSET 1.000000 -70.206352 -1.654994
		CHANNELS 3 Xrotation Yrotation Zrotation
		End Site
		{
			OFFSET 0.000000 21.880581 0.000000
		}
	}
}
MOTION
Frames: 4
Frame Time: 0.016667
-1.561155 74.699074 5.504651 88.600715 9.792290 5.015478 -0.000000 -0.000000 -0.000000 -11.999299 -13.871815 2.476430 23.702362 9.402053 -0.896923 14.215900 -5.554159 -13.244595 0.000002 -0.000000 0.000000 -0.000000 0.000000 -0.000001 -11.843424 -54.593439 -12.939541 13.908365 -1.017745 0.467937 15.575003 29.920583 14.114468 0.000001 0.000002 0.000001 -0.000000 0.000001 0.000000 2.368798 6.299041 -3.301998 5.204474 12.461940 -7.272587 5.204487 12.461942 -7.272586 -13.925058 -2.201571 -7.202078 1.344862 -28.177998 -3.371375 0.000000 0.000001 -0.000000 0.000000 0.000001 -0.000000 -0.000000 0.000001 -0.000000 0.000000 0.000001 -0.000001 0.000000 0.000001 -0.000001 0.000000 0.000001 -0.000001 0.000000 0.000001 -0.000001 0.000000 0.000001 -0.000000 -0.000000 0.000001 -0.000000 -0.946206 7.997313 -0.528321 13.397940 -45.857289 10.759538 -26.479971 -113.995762 -14.542904 34.884361 26.472461 62.213133 -28.616572 1.785679 -31.886543 -8.417879 -9.155618 9.061665 -0.000001 -0.000001 0.000003 -1.782482 -3.346258 -48.762609 -10.961970 2.408853 -29.564324 0.000002 -0.000000 0.000000 -5.773415 -4.065447 -54.735145 -9.444289 -1.048319 -37.091380 -0.000001 -0.000000 -0.000002 -4.319188 -0.251474 -48.798409 -9.871620 -3.996394 -60.684639 0.000001 0.000001 -0.000001 -2.300953 -5.057455 -60.866261 -6.359260 -10.035284 -35.564375 -0.000001 -0.000000 -0.000001 0.000000 0.000001 -0.000000 3.795539 21.519194 -8.226408 -80.133466 26.390657 42.652120 -0.003307 22.886495 -0.003609 11.119559 -4.777191 8.326636 -23.996985 -4.418923 22.256441 -10.139179 9.662656 -5.681518 -0.000001 -0.000002 -0.000003 6.015661 7.975265 -31.677721 -1.239451 0.069898 8.969522 0.000001 0.000001 -0.000000 0.487915 -6.980115 -29.826483 -4.079332 2.618093 18.717857 0.000001 -0.000001 -0.000001 -5.836960 -19.547723 -19.366689 -3.264834 5.816570 20.490088 -0.000001 -0.000001 0.000001 7.393274 -16.577223 5.862959 -4.392332 8.296253 17.658988 -0.000003 0.000001 0.000001 0.000002 0.000000 -0.000000 -0.000001 0.000001 -0.000000 -0.000001 0.000001 -0.000000 -0.000001 0.000001 -0.000000 -0.000001 0.000001 -0.000000 -0.000001 0.000001 -0.000000 -0.000001 -0.000002 0.000001 -0.000001 0.000001 -0.000000 -0.000001 0.000001 -0.000000 -0.000001 0.000001 -0.000000 -0.000000 -0.000002 0.000002 -0.000000 -0.000000 -0.000000 -0.000000 -0.000000 -0.000000 -0.000000 -0.000000 -0.000000 
-1.562954 74.695946 5.458574 88.565185 9.867860 4.991361 0.000000 -0.000002 0.000000 -11.912138 -13.797622 2.666851 23.572853 8.579989 -0.933088 13.990123 -5.265469 -13.843827 -0.000001 -0.000001 0.000000 0.000001 0.000001 0.000000 -11.842205 -54.712056 -12.949661 14.045836 -1.026836 0.475307 15.550205 29.873765 14.222259 0.000001 -0.000000 0.000002 -0.000000 -0.000002 -0.000000 2.365991 6.311177 -3.293826 5.197615 12.488349 -7.248143 5.197639 12.488356 -7.248146 -13.955286 -2.219527 -7.151897 1.354292 -28.234284 -3.403389 -0.000001 -0.000000 -0.000001 -0.000001 -0.000000 -0.000001 -0.000001 0.000000 0.000001 -0.000001 -0.000000 -0.000000 -0.000001 -0.000000 -0.000000 -0.000001 -0.000000 -0.000000 -0.000001 -0.000000 -0.000000 -0.000001 -0.000000 -0.000001 -0.000001 0.000000 0.000001 -0.954753 8.031880 -0.539070 13.462863 -46.096062 10.892462 -26.642603 -113.825779 -14.656317 34.859230 26.373466 62.151791 -28.697320 1.632876 -31.900060 -8.452224 -9.229157 9.076755 -0.000000 -0.000001 0.000004 -1.852288 -3.367433 -48.566378 -10.947145 2.408362 -29.497698 -0.000002 0.000000 -0.000000 -5.796995 -4.039746 -54.493865 -9.446544 -1.048650 -37.102277 0.000003 -0.000000 0.000000 -4.345095 -0.203740 -48.723165 -9.873349 -3.996935 -60.697548 -0.000000 0.000000 -0.000001 -2.340869 -5.009594 -60.593921 -6.353560 -10.030590 -35.528141 0.000000 -0.000001 -0.000000 -0.000000 0.000000 0.000000 3.828873 21.676104 -8.271180 -80.115230 26.357613 42.816438 -0.003215 23.145202 -0.003744 10.870800 -4.731503 8.563455 -23.800440 -4.569925 22.590605 -10.125539 9.631380 -5.678713 -0.000002 0.000000 0.000002 6.016675 7.841312 -31.839617 -1.229469 0.064340 8.862106 -0.000001 -0.000001 0.000001 0.490823 -7.019759 -29.922789 -4.082655 2.619445 18.735038 -0.000000 0.000001 -0.000001 -5.790891 -19.429865 -19.045108 -3.272229 5.824441 20.532971 -0.000003 0.000000 -0.000001 7.430341 -16.641488 5.965054 -4.393636 8.298404 17.668132 0.000001 -0.000003 -0.000002 0.000002 -0.000001 -0.000000 -0.000000 0.000002 0.000000 -0.000000 0.000002 0.000000 -0.000000 0.000002 0.000000 -0.000000 0.000002 0.000001 -0.000000 0.000002 0.000001 0.000001 0.000001 0.000000 -0.000000 0.000002 0.000000 -0.000000 0.000002 0.000000 -0.000000 0.000002 0.000001 0.000001 0.000001 0.000000 0.000000 -0.000002 0.000000 0.000000 -0.000002 0.000000 0.000000 -0.000002 0.000000 
-1.560188 74.693336 5.413113 88.515017 9.969015 4.953921 0.000000 -0.000002 -0.000000 -11.812834 -13.720617 2.867104 23.423642 7.758988 -0.966871 13.771854 -4.983282 -14.412635 0.000001 -0.000000 0.000000 -0.000001 -0.000000 0.000000 -11.794585 -54.755789 -12.913548 14.170914 -1.033051 0.481523 15.441470 29.827631 14.390565 0.000001 -0.000001 -0.000002 0.000000 -0.000001 -0.000000 2.365318 6.322357 -3.281397 5.194863 12.512801 -7.217788 5.194847 12.512792 -7.217780 -14.001799 -2.230692 -7.110235 1.358249 -28.274092 -3.435007 -0.000001 -0.000000 0.000000 -0.000001 -0.000000 0.000000 -0.000001 -0.000000 -0.000001 -0.000001 -0.000000 0.000001 -0.000001 -0.000000 0.000001 -0.000001 -0.000000 0.000001 -0.000001 -0.000000 0.000001 -0.000001 -0.000000 0.000000 -0.000001 -0.000000 -0.000001 -0.964029 8.078127 -0.554888 13.529223 -46.394866 11.022666 -26.847681 -113.638823 -14.812365 34.845590 26.266531 62.072069 -28.770430 1.494742 -31.913594 -8.487519 -9.304745 9.092244 -0.000000 0.000003 0.000001 -1.920038 -3.389462 -48.384657 -10.930708 2.407837 -29.424011 0.000000 -0.000000 0.000000 -5.820144 -4.014509 -54.254361 -9.447345 -1.048739 -37.106218 0.000001 0.000000 0.000000 -4.371145 -0.155829 -48.641718 -9.874329 -3.997249 -60.704850 -0.000000 0.000000 0.000003 -2.372844 -4.964470 -60.333793 -6.348776 -10.026628 -35.497593 0.000003 -0.000000 0.000001 -0.000000 0.000002 0.000000 3.867167 21.852231 -8.327468 -80.102362 26.326402 43.003988 -0.003025 23.420637 -0.003988 10.639606 -4.683169 8.812857 -23.616332 -4.705418 22.888871 -10.111885 9.600090 -5.675921 -0.000000 0.000001 0.000003 6.014899 7.723551 -31.976480 -1.212339 0.054873 8.727545 0.000000 -0.000001 0.000003 0.499013 -7.048520 -30.009867 -4.087278 2.621404 18.758006 0.000002 -0.000001 -0.000000 -5.745712 -19.309244 -18.728174 -3.280025 5.832769 20.578354 0.000001 -0.000002 -0.000001 7.465755 -16.718457 6.049181 -4.391390 8.295124 17.652373 0.000002 -0.000001 -0.000001 -0.000000 0.000001 -0.000001 0.000000 0.000000 0.000001 0.000000 0.000000 0.000001 0.000000 0.000000 0.000001 0.000000 0.000000 0.000000 0.000000 0.000000 0.000000 0.000000 0.000002 -0.000001 0.000000 0.000000 0.000001 0.000000 0.000000 0.000001 0.000000 0.000000 0.000000 0.000001 0.000002 -0.000000 0.000000 -0.000002 -0.000000 0.000000 -0.000002 -0.000000 0.000000 -0.000002 -0.000000 
-1.553265 74.690598 5.368269 88.443471 10.094741 4.902608 0.000000 -0.000001 -0.000000 -11.693632 -13.645604 3.080284 23.258763 6.935679 -0.998737 13.555553 -4.716851 -14.966012 0.000001 0.000000 -0.000001 -0.000001 0.000000 0.000000 -11.684522 -54.719388 -12.824897 14.279221 -1.034269 0.486227 15.226641 29.771681 14.670852 0.000000 -0.000001 0.000000 -0.000000 -0.000002 -0.000000 2.368650 6.331830 -3.264003 5.199924 12.533870 -7.180044 5.199924 12.533870 -7.180050 -14.056941 -2.234071 -7.075659 1.342329 -28.280453 -3.466637 -0.000000 -0.000001 -0.000001 -0.000000 -0.000001 -0.000001 0.000000 -0.000001 0.000000 -0.000000 -0.000001 -0.000000 -0.000000 -0.000001 -0.000000 -0.000000 -0.000001 -0.000000 -0.000000 -0.000001 -0.000000 -0.000000 -0.000001 -0.000001 0.000000 -0.000001 0.000000 -0.973362 8.134289 -0.577376 13.583236 -46.750268 11.133872 -27.085079 -113.438814 -15.001059 34.850610 26.154760 61.968715 -28.825820 1.392206 -31.929113 -8.521338 -9.377421 9.107092 0.000002 0.000000 0.000002 -1.982248 -3.412403 -48.238249 -10.913699 2.407286 -29.347718 -0.000002 0.000000 -0.000000 -5.836076 -3.990471 -54.024573 -9.444987 -1.048419 -37.094802 0.000001 0.000000 -0.000001 -4.397371 -0.107817 -48.553745 -9.872662 -3.996723 -60.692351 -0.000001 -0.000001 0.000002 -2.400536 -4.927234 -60.113929 -6.344591 -10.023164 -35.470907 0.000001 0.000000 -0.000001 -0.000000 -0.000000 -0.000000 3.911036 22.045291 -8.397012 -80.119984 26.274438 43.201257 -0.002850 23.695690 -0.004264 10.433484 -4.649614 9.033258 -23.472024 -4.791277 23.030493 -10.098243 9.568803 -5.673118 0.000000 -0.000001 0.000001 5.995213 7.601325 -32.073827 -1.180702 0.037540 8.538074 -0.000000 0.000001 0.000002 0.511153 -7.082607 -30.160842 -4.092987 2.623817 18.785489 0.000001 0.000000 -0.000000 -5.721830 -19.250989 -18.480103 -3.287631 5.840860 20.622503 -0.000002 -0.000002 -0.000001 7.488177 -16.790844 6.090348 -4.382307 8.281305 17.588577 0.000001 0.000002 -0.000000 -0.000000 0.000001 0.000001 0.000001 0.000001 -0.000000 0.000001 0.000001 -0.000000 0.000001 0.000001 -0.000000 0.000001 0.000001 -0.000000 0.000001 0.000001 -0.000000 0.000001 -0.000002 -0.000000 0.000001 0.000001 -0.000000 0.000001 0.000001 -0.000000 0.000001 0.000001 -0.000000 0.000001 -0.000002 0.000001 0.000000 -0.000001 -0.000000 0.000000 -0.000001 -0.000000 0.000000 -0.000001 -0.000000 
